<svg width="148" height="148" viewBox="0 0 148 148" fill="none" xmlns="http://www.w3.org/2000/svg">
<g clip-path="url(#clip0_58_1059)">
<rect width="148" height="148" rx="74" fill="#0A2C73"/>
<rect x="24" y="56" width="26" height="6" rx="3" fill="#E52C34"/>
<rect x="38.2764" y="27.5337" width="26" height="6" rx="3" transform="rotate(45 38.2764 27.5337)" fill="#E52C34"/>
<rect x="96.9668" y="31.7764" width="26" height="6" rx="3" transform="rotate(135 96.9668 31.7764)" fill="#E52C34"/>
<rect x="81" y="56" width="26" height="6" rx="3" fill="#E52C34"/>
<rect x="68" y="18" width="26" height="6" rx="3" transform="rotate(90 68 18)" fill="#E52C34"/>
<path d="M65 55C60.5817 55 57 58.5817 57 63V100.187C34.5015 115.817 40.9763 123.126 54.6125 138.517C56.9069 141.107 59.404 143.926 62 147.052V154C62 156.209 63.7909 158 66 158H110.272C112.331 158 114 156.331 114 154.272V152.246C114 148.132 114.902 144.068 116.642 140.34C119.512 134.188 121 127.482 121 120.693V98C121 93.5817 117.418 90 113 90C108.582 90 105 93.5817 105 98V91C105 86.5817 101.418 83 97 83C92.5817 83 89 86.5817 89 91V86C89 81.5817 85.4183 78 81 78C76.5817 78 73 81.5817 73 86V63C73 58.5817 69.4183 55 65 55Z" fill="#DBE2F7"/>
<path d="M61 63C61 60.7909 62.7909 59 65 59C67.2091 59 69 60.7909 69 63V64.25C69 65.2165 68.2165 66 67.25 66H62.75C61.7835 66 61 65.2165 61 64.25V63Z" fill="#A1B2E1"/>
</g>
<defs>
<clipPath id="clip0_58_1059">
<rect width="148" height="148" rx="74" fill="white"/>
</clipPath>
</defs>
</svg>
