<svg width="148" height="148" viewBox="0 0 148 148" fill="none" xmlns="http://www.w3.org/2000/svg">
<g clip-path="url(#clip0_58_1062)">
<rect width="148" height="148" rx="74" fill="#0A2C73"/>
<rect x="100" y="37" width="48.3771" height="36.2828" rx="8" fill="#A1B2E1"/>
<path d="M117.49 44.7269C117.918 44.3692 118.382 44.0346 118.881 43.723C119.391 43.4114 119.936 43.1402 120.516 42.9094C121.095 42.6671 121.716 42.4825 122.376 42.3555C123.049 42.2171 123.774 42.1478 124.55 42.1478C125.64 42.1478 126.62 42.2921 127.489 42.5806C128.371 42.8691 129.118 43.2845 129.733 43.8268C130.347 44.3577 130.817 45.0039 131.142 45.7655C131.478 46.5156 131.646 47.3522 131.646 48.2754C131.646 49.1524 131.524 49.914 131.281 50.5602C131.037 51.1949 130.73 51.7488 130.359 52.2219C129.988 52.695 129.576 53.1047 129.124 53.4509C128.684 53.7971 128.261 54.1202 127.855 54.4202C127.461 54.7087 127.113 54.9972 126.811 55.2857C126.521 55.5742 126.336 55.8973 126.255 56.255L125.768 58.6783H122.081L121.698 55.8915C121.605 55.3261 121.663 54.8356 121.872 54.4202C122.081 53.9932 122.365 53.6124 122.724 53.2778C123.095 52.9316 123.507 52.6085 123.959 52.3085C124.411 51.9969 124.834 51.668 125.229 51.3218C125.623 50.9641 125.953 50.5717 126.22 50.1448C126.498 49.7063 126.637 49.187 126.637 48.5869C126.637 47.8946 126.405 47.3464 125.942 46.9425C125.489 46.5271 124.863 46.3194 124.063 46.3194C123.449 46.3194 122.933 46.3829 122.516 46.5098C122.11 46.6367 121.756 46.781 121.455 46.9425C121.165 47.0926 120.91 47.231 120.689 47.358C120.469 47.4849 120.249 47.5484 120.029 47.5484C119.53 47.5484 119.159 47.3349 118.916 46.9079L117.49 44.7269ZM120.689 64.927C120.689 64.5116 120.765 64.125 120.916 63.7673C121.078 63.4096 121.292 63.098 121.559 62.8326C121.837 62.5672 122.162 62.3595 122.533 62.2094C122.904 62.0479 123.31 61.9671 123.75 61.9671C124.179 61.9671 124.579 62.0479 124.95 62.2094C125.321 62.3595 125.646 62.5672 125.924 62.8326C126.203 63.098 126.417 63.4096 126.568 63.7673C126.73 64.125 126.811 64.5116 126.811 64.927C126.811 65.3424 126.73 65.7348 126.568 66.1041C126.417 66.4618 126.203 66.7734 125.924 67.0388C125.646 67.3042 125.321 67.5119 124.95 67.6619C124.579 67.8119 124.179 67.8869 123.75 67.8869C123.31 67.8869 122.904 67.8119 122.533 67.6619C122.162 67.5119 121.837 67.3042 121.559 67.0388C121.292 66.7734 121.078 66.4618 120.916 66.1041C120.765 65.7348 120.689 65.3424 120.689 64.927Z" fill="#0A2C73"/>
<path d="M119.148 73.2828C121.932 73.2828 124.188 76.043 124.188 78.8261C124.188 76.043 126.444 73.2828 129.227 73.2828H119.148Z" fill="#A1B2E1"/>
<rect x="10" y="12" width="53.3771" height="40.0328" rx="8" fill="#A1B2E1"/>
<path d="M29.298 20.5256C29.7713 20.1309 30.283 19.7617 30.8331 19.4179C31.3959 19.0741 31.9972 18.7749 32.6368 18.5203C33.2764 18.2529 33.9608 18.0492 34.69 17.9091C35.432 17.7563 36.2315 17.6799 37.0886 17.6799C38.2911 17.6799 39.3721 17.8391 40.3315 18.1574C41.3037 18.4757 42.1289 18.9341 42.8069 19.5325C43.4849 20.1182 44.003 20.8312 44.3611 21.6715C44.7321 22.4991 44.9176 23.4222 44.9176 24.4408C44.9176 25.4084 44.7833 26.2488 44.5147 26.9618C44.246 27.662 43.907 28.2732 43.4977 28.7952C43.0883 29.3172 42.6342 29.7692 42.1352 30.1512C41.6491 30.5332 41.1822 30.8897 40.7345 31.2207C40.2995 31.539 39.9158 31.8573 39.5831 32.1756C39.2633 32.4939 39.0587 32.8504 38.9691 33.2451L38.4318 35.9189H34.3638L33.9417 32.8441C33.8393 32.2202 33.9033 31.6791 34.1335 31.2207C34.3638 30.7496 34.6772 30.3295 35.0738 29.9602C35.4831 29.5783 35.9373 29.2217 36.4362 28.8907C36.9351 28.5469 37.402 28.1841 37.837 27.8021C38.2719 27.4074 38.6365 26.9745 38.9307 26.5034C39.2377 26.0196 39.3913 25.4466 39.3913 24.7845C39.3913 24.0206 39.1354 23.4158 38.6237 22.9702C38.1248 22.5118 37.434 22.2827 36.5513 22.2827C35.8733 22.2827 35.3041 22.3527 34.8435 22.4927C34.3958 22.6328 34.0056 22.7919 33.673 22.9702C33.3532 23.1357 33.0718 23.2885 32.8287 23.4286C32.5856 23.5686 32.3426 23.6386 32.0995 23.6386C31.5495 23.6386 31.1401 23.4031 30.8715 22.932L29.298 20.5256ZM32.8287 42.8135C32.8287 42.3551 32.9119 41.9286 33.0782 41.5339C33.2573 41.1392 33.4939 40.7954 33.7881 40.5026C34.0952 40.2097 34.4534 39.9805 34.8627 39.815C35.2721 39.6368 35.7198 39.5476 36.2059 39.5476C36.6792 39.5476 37.1206 39.6368 37.5299 39.815C37.9393 39.9805 38.2975 40.2097 38.6045 40.5026C38.9115 40.7954 39.1482 41.1392 39.3145 41.5339C39.4936 41.9286 39.5831 42.3551 39.5831 42.8135C39.5831 43.2718 39.4936 43.7047 39.3145 44.1122C39.1482 44.5069 38.9115 44.8506 38.6045 45.1435C38.2975 45.4363 37.9393 45.6655 37.5299 45.831C37.1206 45.9965 36.6792 46.0793 36.2059 46.0793C35.7198 46.0793 35.2721 45.9965 34.8627 45.831C34.4534 45.6655 34.0952 45.4363 33.7881 45.1435C33.4939 44.8506 33.2573 44.5069 33.0782 44.1122C32.9119 43.7047 32.8287 43.2718 32.8287 42.8135Z" fill="#0A2C73"/>
<path d="M31.1276 52.033C34.1983 52.033 36.6877 55.0784 36.6877 58.1492C36.6877 55.0784 39.177 52.033 42.2478 52.033H31.1276Z" fill="#A1B2E1"/>
<rect x="42" y="62" width="69.8702" height="52.4026" rx="8" fill="#DBE2F7"/>
<path d="M65.2906 73.2162C65.9523 72.67 66.6676 72.159 67.4365 71.6832C68.2234 71.2075 69.0638 70.7934 69.958 70.441C70.8521 70.071 71.8088 69.7891 72.8281 69.5952C73.8653 69.3838 74.9829 69.2781 76.181 69.2781C77.862 69.2781 79.3731 69.4983 80.7142 69.9388C82.0733 70.3793 83.2267 71.0137 84.1745 71.8418C85.1223 72.6524 85.8465 73.6391 86.3472 74.802C86.8658 75.9473 87.1251 77.2248 87.1251 78.6344C87.1251 79.9736 86.9373 81.1365 86.5618 82.1232C86.1863 83.0924 85.7124 83.9381 85.1401 84.6606C84.5679 85.383 83.9331 86.0085 83.2357 86.5371C82.5561 87.0657 81.9034 87.5591 81.2775 88.0172C80.6695 88.4577 80.1331 88.8982 79.6681 89.3387C79.2211 89.7792 78.9349 90.2726 78.8098 90.8188L78.0587 94.5191H72.3721L71.782 90.2638C71.6389 89.4004 71.7283 88.6515 72.0502 88.0172C72.3721 87.3653 72.8102 86.7838 73.3646 86.2728C73.9368 85.7442 74.5716 85.2508 75.269 84.7927C75.9665 84.317 76.6192 83.8148 77.2272 83.2862C77.8352 82.74 78.3448 82.1409 78.7561 81.4889C79.1853 80.8193 79.3999 80.0264 79.3999 79.1102C79.3999 78.053 79.0422 77.216 78.3269 76.5993C77.6295 75.965 76.6639 75.6478 75.43 75.6478C74.4822 75.6478 73.6864 75.7447 73.0427 75.9385C72.4168 76.1324 71.8714 76.3526 71.4064 76.5993C70.9594 76.8284 70.566 77.0398 70.2262 77.2336C69.8864 77.4274 69.5467 77.5244 69.2069 77.5244C68.438 77.5244 67.8657 77.1984 67.4902 76.5464L65.2906 73.2162ZM70.2262 104.06C70.2262 103.426 70.3424 102.836 70.5749 102.29C70.8253 101.743 71.1561 101.268 71.5674 100.862C71.9966 100.457 72.4973 100.14 73.0695 99.9109C73.6417 99.6642 74.2676 99.5409 74.9472 99.5409C75.6088 99.5409 76.2257 99.6642 76.798 99.9109C77.3702 100.14 77.8709 100.457 78.3001 100.862C78.7293 101.268 79.0601 101.743 79.2926 102.29C79.5429 102.836 79.6681 103.426 79.6681 104.06C79.6681 104.695 79.5429 105.294 79.2926 105.858C79.0601 106.404 78.7293 106.88 78.3001 107.285C77.8709 107.69 77.3702 108.007 76.798 108.236C76.2257 108.466 75.6088 108.58 74.9472 108.58C74.2676 108.58 73.6417 108.466 73.0695 108.236C72.4973 108.007 71.9966 107.69 71.5674 107.285C71.1561 106.88 70.8253 106.404 70.5749 105.858C70.3424 105.294 70.2262 104.695 70.2262 104.06Z" fill="#E52C34"/>
<path d="M69.6559 114.403C73.6755 114.403 76.934 118.389 76.934 122.409C76.934 118.389 80.1926 114.403 84.2122 114.403H69.6559Z" fill="#DBE2F7"/>
</g>
<defs>
<clipPath id="clip0_58_1062">
<rect width="148" height="148" rx="74" fill="white"/>
</clipPath>
</defs>
</svg>
