<svg width="148" height="148" viewBox="0 0 148 148" fill="none" xmlns="http://www.w3.org/2000/svg">
<rect width="148" height="148" rx="74" fill="#0A2C73"/>
<rect x="32" y="49" width="66" height="66" rx="8" fill="#DBE2F7"/>
<rect x="46" y="59" width="6" height="46" rx="3" fill="#A1B2E1"/>
<circle cx="49" cy="73" r="7" fill="#A1B2E1"/>
<rect x="62" y="59" width="6" height="46" rx="3" fill="#A1B2E1"/>
<circle cx="65" cy="93" r="7" fill="#A1B2E1"/>
<rect x="78" y="59" width="6" height="46" rx="3" fill="#A1B2E1"/>
<circle cx="81" cy="85" r="7" fill="#A1B2E1"/>
<path d="M122 52C122 66.9117 109.912 79 95 79C80.0883 79 68 66.9117 68 52C68 37.0883 80.0883 25 95 25C109.912 25 122 37.0883 122 52Z" fill="#0A2C73"/>
<path d="M95 56C96.6569 56 98 54.6569 98 53C98 51.3431 96.6569 50 95 50C93.3431 50 92 51.3431 92 53C92 54.6569 93.3431 56 95 56Z" fill="#E52C34"/>
<path fill-rule="evenodd" clip-rule="evenodd" d="M98 23C98 21.3431 96.6569 20 95 20C93.3431 20 92 21.3431 92 23V25.1648C79.1536 26.5849 69.0235 37.0177 68.073 50H65C63.3431 50 62 51.3431 62 53C62 54.6569 63.3431 56 65 56H68.2943C70.0824 68.041 79.8204 77.4888 92 78.8352V83C92 84.6569 93.3431 86 95 86C96.6569 86 98 84.6569 98 83V78.8352C110.18 77.4888 119.918 68.0411 121.706 56H125C126.657 56 128 54.6569 128 53C128 51.3431 126.657 50 125 50H121.927C120.976 37.0177 110.846 26.5849 98 25.1648V23ZM92 31.2127V38C92 39.6569 93.3431 41 95 41C96.6569 41 98 39.6569 98 38V31.2127C107.528 32.5755 114.993 40.3341 115.906 50H110C108.343 50 107 51.3431 107 53C107 54.6569 108.343 56 110 56H115.62C113.938 64.7206 106.861 71.5199 98 72.7873V68C98 66.3431 96.6569 65 95 65C93.3431 65 92 66.3431 92 68V72.7873C83.1389 71.5199 76.0623 64.7206 74.3805 56H80C81.6569 56 83 54.6569 83 53C83 51.3431 81.6569 50 80 50H74.094C75.0072 40.3341 82.472 32.5755 92 31.2127Z" fill="#E52C34"/>
</svg>
