<svg width="38" height="38" viewBox="0 0 38 38" fill="none" xmlns="http://www.w3.org/2000/svg">
<g clip-path="url(#clip0_11_1628)">
<path d="M19.0008 -6.32416e-05C29.2826 -0.0450297 38.0292 8.29842 37.9997 19.0589C37.971 29.5551 29.4866 38.0363 18.9337 37.9997C8.30202 37.9639 0.00254093 29.3288 6.91679e-07 19.0523C-0.00279357 8.49022 8.46104 -6.32416e-05 19.0008 -6.32416e-05Z" fill="#FECA00"/>
<path d="M29.497 17.5293C30.1514 18.0722 30.57 18.7314 30.7468 19.5429C31.1464 21.3756 29.9085 23.2672 28.0697 23.6229C26.1645 23.9915 24.3274 22.7683 23.9929 20.9099C23.9598 20.7267 23.9888 20.4719 23.8796 20.3795C23.7658 20.2832 23.5191 20.348 23.3311 20.334C22.4329 20.2669 21.7287 19.722 21.5682 18.9659C21.5202 18.7393 21.4795 18.5036 21.6851 18.3242C21.8906 18.1448 22.1217 18.1987 22.3303 18.3079C23.0502 18.6852 23.7713 18.5158 24.4867 18.3179C25.7106 17.9792 26.7828 17.3123 27.8847 16.7118C28.9539 16.129 29.9619 15.4415 31.0484 14.8877C31.1269 14.8442 31.208 14.8054 31.2912 14.7716C31.5084 14.6921 31.7116 14.7142 31.8536 14.9123C31.9928 15.1067 31.9702 15.3092 31.8211 15.4916C31.376 16.0368 30.8439 16.4895 30.2906 16.9188C30.0325 17.1203 29.7721 17.3189 29.497 17.5293Z" fill="#171615"/>
<path d="M7.18819 20.2324C7.19225 19.2174 7.57684 18.3684 8.32519 17.6896C8.48574 17.544 8.46516 17.4896 8.30309 17.3702C7.571 16.8309 6.84907 16.2778 6.24906 15.5853C6.06642 15.3744 5.96837 15.158 6.14745 14.9138C6.32908 14.6649 6.5704 14.7037 6.81757 14.8244C7.90479 15.3556 8.90056 16.0439 9.95907 16.6261C11.0054 17.2028 12.0296 17.8341 13.1715 18.2152C13.8141 18.4296 14.4698 18.6174 15.1668 18.4891C15.3779 18.4502 15.5583 18.3435 15.7546 18.2731C16.2042 18.1123 16.4872 18.3189 16.4466 18.7977C16.3912 19.4532 15.9995 19.8703 15.4343 20.1391C15.0884 20.3008 14.7067 20.3708 14.326 20.3424C14.1433 20.3307 14.0669 20.3772 14.0445 20.5751C13.8459 22.346 12.4787 23.6295 10.7389 23.693C9.03951 23.755 7.5776 22.5724 7.2334 20.8601C7.19174 20.6523 7.19505 20.4432 7.18819 20.2324Z" fill="#171615"/>
<path d="M13.5547 27.6686C13.561 27.4872 13.6436 27.3045 13.7295 27.1249C14.3975 25.7251 15.5435 24.8814 16.9906 24.4622C19.2797 23.7992 21.3992 24.1353 23.2445 25.722C23.7906 26.1918 24.1793 26.7855 24.4084 27.4727C24.5131 27.7862 24.3911 28.0824 24.129 28.2155C23.8618 28.3514 23.547 28.2783 23.3646 28.008C22.5551 26.8089 21.3741 26.22 19.9952 25.9946C18.5915 25.766 17.2482 25.9789 16.007 26.7022C15.4563 27.0233 14.995 27.448 14.6483 27.9879C14.4763 28.2557 14.2223 28.3222 13.9433 28.2386C13.6916 28.1637 13.5582 27.9643 13.5547 27.6686Z" fill="#171615"/>
</g>
<defs>
<clipPath id="clip0_11_1628">
<rect width="38" height="38" fill="white"/>
</clipPath>
</defs>
</svg>
