<svg width="38" height="38" viewBox="0 0 38 38" fill="none" xmlns="http://www.w3.org/2000/svg">
<g clip-path="url(#clip0_11_1637)">
<path d="M19.0024 -6.32416e-05C29.2873 -0.0450297 38.0365 8.29842 38.007 19.0589C37.9783 29.5551 29.4914 38.0363 18.9354 37.9997C8.30055 37.9639 -0.00136457 29.3288 -0.00390556 19.0523C-0.00670065 8.49022 8.45962 -6.32416e-05 19.0024 -6.32416e-05Z" fill="#FECA00"/>
<path d="M23.9531 20.1935C23.9527 19.7382 24.0424 19.2873 24.2172 18.8668C24.392 18.4463 24.6483 18.0647 24.9714 17.7438C25.2945 17.4229 25.6779 17.1692 26.0996 16.9972C26.5213 16.8253 26.9729 16.7386 27.4283 16.742C29.3324 16.7486 30.8826 18.2965 30.8826 20.1912C30.8826 22.1335 29.342 23.6872 27.4151 23.6895C25.4881 23.6918 23.9524 22.1414 23.9531 20.1935Z" fill="#171615"/>
<path d="M14.066 20.216C14.0644 22.1304 12.511 23.6866 10.5997 23.6881C8.68842 23.6897 7.121 22.1276 7.11719 20.2241C7.11339 18.301 8.67803 16.7387 10.6058 16.7407C12.5186 16.7453 14.0682 18.3 14.066 20.216Z" fill="#171615"/>
<path d="M21.2824 24.4183C21.65 24.397 22.0646 24.4563 22.4758 24.5417C22.8417 24.6177 23.0211 24.8132 23.0112 25.1155C23.0016 25.4065 22.826 25.5851 22.4621 25.6312C20.81 25.8405 19.2826 26.3641 17.943 27.3792C17.2315 27.919 16.6066 28.5468 16.0211 29.2176C15.7608 29.5158 15.5194 29.5821 15.2657 29.4426C15.0121 29.303 14.9363 29.0504 15.0544 28.6811C15.6136 26.9493 16.803 25.7893 18.4171 25.0293C19.3384 24.5964 20.2252 24.4183 21.2824 24.4183Z" fill="#171615"/>
<path d="M6.99609 13.3692C6.99989 11.5029 8.2924 9.67056 9.96067 9.16845C10.2647 9.07675 10.5984 8.93615 10.828 9.28777C11.0576 9.6394 10.7918 9.88387 10.5769 10.12C9.48102 11.3253 8.63548 12.6759 8.17432 14.2493C8.09071 14.5348 7.93032 14.7395 7.60776 14.7248C7.2852 14.7101 7.14863 14.4968 7.09061 14.1994C7.03765 13.9248 6.9966 13.6497 6.99609 13.3692Z" fill="#171615"/>
<path d="M27.8178 15.8926C27.1395 15.8885 26.4914 15.756 25.8939 15.4191C25.6322 15.2714 25.3834 15.1138 25.4591 14.7533C25.5349 14.3928 25.8331 14.3769 26.1144 14.3594C26.9125 14.3105 27.7048 14.2272 28.4858 14.0468C29.3285 13.8522 30.1092 13.5001 30.8777 13.1173C31.1409 12.9861 31.3819 12.9749 31.5833 13.2055C31.7848 13.436 31.7409 13.682 31.5833 13.9211C30.8501 15.0317 29.7922 15.622 28.5037 15.8419C28.3771 15.8637 28.2468 15.8807 28.1176 15.891C28.0178 15.8989 27.9174 15.8926 27.8178 15.8926Z" fill="#171615"/>
</g>
<defs>
<clipPath id="clip0_11_1637">
<rect width="38" height="38" fill="white"/>
</clipPath>
</defs>
</svg>
