<svg width="38" height="38" viewBox="0 0 38 38" fill="none" xmlns="http://www.w3.org/2000/svg">
<g clip-path="url(#clip0_11_1648)">
<path d="M19.0019 -2.20646e-06C29.2823 -0.0449687 38.0275 8.29848 37.9981 19.0589C37.9694 29.5552 29.4862 38.0363 18.9348 37.9997C8.30471 37.9639 0.00644681 29.3288 0.00390694 19.0523C0.00111309 8.49028 8.46371 -2.20646e-06 19.0019 -2.20646e-06Z" fill="#FECA00"/>
<path d="M7.12502 20.2105C7.12342 19.755 7.21167 19.3037 7.38472 18.8825C7.55778 18.4612 7.81223 18.0783 8.1335 17.7555C8.45477 17.4328 8.83655 17.1766 9.25696 17.0017C9.67737 16.8268 10.1282 16.7366 10.5835 16.7362C12.5074 16.7337 14.0927 18.3178 14.0722 20.2224C14.0514 22.1406 12.4937 23.6883 10.5865 23.6852C8.67379 23.6822 7.12528 22.128 7.12502 20.2105Z" fill="#171615"/>
<path d="M30.875 20.215C30.8749 21.1347 30.5098 22.0168 29.86 22.6674C29.2101 23.3181 28.3286 23.6842 27.4092 23.6852C25.503 23.6852 23.9423 22.132 23.9278 20.2181C23.9134 18.3092 25.4962 16.7316 27.4211 16.7362C29.3369 16.7405 30.8758 18.2904 30.875 20.215Z" fill="#171615"/>
<path d="M19.0128 25.2438C20.6012 25.241 22.187 25.2859 23.765 25.489C24.1911 25.5438 24.4127 25.766 24.4071 26.1326C24.4015 26.4926 24.1673 26.7073 23.7396 26.7556C20.9124 27.0749 18.0796 27.0569 15.247 26.8624C14.8988 26.8386 14.5523 26.7906 14.2064 26.7492C13.8257 26.7035 13.6008 26.4768 13.5939 26.1366C13.5866 25.7769 13.8056 25.5428 14.2031 25.4923C15.7985 25.2882 17.4044 25.2382 19.0128 25.2438Z" fill="#171615"/>
</g>
<defs>
<clipPath id="clip0_11_1648">
<rect width="38" height="38" fill="white"/>
</clipPath>
</defs>
</svg>
