<svg width="38" height="38" viewBox="0 0 38 38" fill="none" xmlns="http://www.w3.org/2000/svg">
<g clip-path="url(#clip0_11_1657)">
<path d="M18.9938 -2.20646e-06C29.275 -0.0449687 38.0211 8.29848 37.9916 19.0589C37.9629 29.5552 29.479 38.0363 18.9267 37.9997C8.29566 37.9639 -0.00331859 29.3288 -0.00585868 19.0523C-0.00865278 8.49028 8.45468 -2.20646e-06 18.9938 -2.20646e-06Z" fill="#FECA00"/>
<path d="M27.4195 16.7545C29.3375 16.756 30.8917 18.3107 30.8853 20.2218C30.879 22.1329 29.3149 23.6947 27.4122 23.6952C25.4872 23.6952 23.9322 22.1314 23.9375 20.1993C23.9426 18.2795 25.4856 16.7529 27.4195 16.7545Z" fill="#171615"/>
<path d="M10.592 16.7545C12.5249 16.7545 14.051 18.2788 14.0512 20.2102C14.0512 22.1479 12.4902 23.7211 10.576 23.6922C8.41745 23.6598 7.08512 21.8518 7.12387 20.178C7.1682 18.2737 8.66846 16.7545 10.592 16.7545Z" fill="#171615"/>
<path d="M18.8336 29.0393C17.119 28.9745 15.468 28.4088 14.2411 26.9024C13.9492 26.5459 13.7276 26.1372 13.5881 25.6981C13.4891 25.3862 13.6165 25.0951 13.8877 24.9634C14.159 24.8317 14.4614 24.9155 14.6476 25.1886C15.4528 26.3762 16.6261 26.9655 17.9941 27.1862C19.4934 27.4278 20.9177 27.1884 22.2094 26.3443C22.6449 26.0581 23.0204 25.6896 23.3148 25.2595C23.5552 24.9127 23.8498 24.8175 24.153 24.9849C24.4362 25.1412 24.5167 25.4374 24.3688 25.8209C23.9012 27.0369 23.0045 27.8385 21.864 28.3976C20.96 28.8412 19.9959 29.0246 18.8336 29.0393Z" fill="#171615"/>
</g>
<defs>
<clipPath id="clip0_11_1657">
<rect width="38" height="38" fill="white"/>
</clipPath>
</defs>
</svg>
