<svg width="38" height="38" viewBox="0 0 38 38" fill="none" xmlns="http://www.w3.org/2000/svg">
<g clip-path="url(#clip0_11_1666)">
<path d="M18.9889 -2.20646e-06C29.2707 -0.0449687 38.0172 8.29848 37.9878 19.0589C37.9591 29.5552 29.4747 38.0363 18.9219 37.9997C8.29025 37.9639 -0.00917783 29.3288 -0.0117181 19.0523C-0.0145123 8.49028 8.44927 -2.20646e-06 18.9889 -2.20646e-06Z" fill="#FECA00"/>
<path d="M17.3008 17.4139C17.3021 18.1574 17.0955 18.8498 16.7905 19.5201C16.1061 21.0263 15.1542 22.3522 14.0594 23.5828C13.1744 24.5776 12.2088 25.4887 11.1923 26.3462C11.0521 26.4643 10.9594 26.4729 10.806 26.3773C9.23431 25.3954 7.7539 24.2911 6.42888 22.9941C5.46965 22.0561 4.60878 21.0273 3.97859 19.8322C2.78006 17.5594 3.71927 14.7093 6.05726 13.8159C7.28848 13.3456 8.40969 13.6131 9.44903 14.3544C9.64438 14.4933 9.82596 14.6507 9.99125 14.8244C10.1451 14.9866 10.2232 15.0244 10.3804 14.8066C10.8324 14.1802 11.4096 13.6866 12.1363 13.4044C13.4292 12.9027 14.6206 13.1628 15.6822 13.9903C16.7515 14.8224 17.3056 16.0601 17.3008 17.4139Z" fill="#E84047"/>
<path d="M34.5252 17.7072C34.5577 18.6959 34.2344 19.5493 33.728 20.3527C32.845 21.7532 31.7162 22.932 30.467 24.0034C29.449 24.876 28.3524 25.6417 27.2246 26.3642C27.0862 26.453 26.9807 26.5006 26.8309 26.3716C25.0372 24.8276 23.3687 23.1696 22.0979 21.1538C21.5539 20.2919 21.0644 19.3964 20.8211 18.3937C20.2687 16.1176 21.6178 13.808 23.8148 13.2624C24.9464 12.9815 25.949 13.266 26.839 13.9868C27.1493 14.238 27.4357 14.5207 27.6624 14.8535C27.7551 14.9897 27.8008 15.0148 27.9394 14.8789C28.6715 14.1622 29.5164 13.6252 30.5682 13.5963C32.0848 13.5545 33.2007 14.2821 33.9693 15.5563C34.3641 16.2021 34.5577 16.9509 34.5252 17.7072Z" fill="#E84047"/>
<path d="M18.9895 30.2619C16.8829 30.2566 15.0207 28.6768 14.6012 26.5375C14.4998 26.0257 14.4529 25.5113 14.5252 24.9895C14.5444 24.8473 14.5589 24.7755 14.7384 24.8247C16.7364 25.3728 18.7704 25.4704 20.8237 25.278C21.6387 25.2022 22.4455 25.0549 23.2347 24.8379C23.3564 24.8044 23.4598 24.7502 23.4824 24.954C23.7237 27.1311 22.5001 29.3717 20.2595 30.0753C19.8488 30.2047 19.42 30.2677 18.9895 30.2619Z" fill="#171615"/>
</g>
<defs>
<clipPath id="clip0_11_1666">
<rect width="38" height="38" fill="white"/>
</clipPath>
</defs>
</svg>
