<svg width="122" height="26" viewBox="0 0 122 26" fill="none" xmlns="http://www.w3.org/2000/svg">
<path fill-rule="evenodd" clip-rule="evenodd" d="M25.7095 0L38.563 13L25.7095 26L19.2812 19.4992L25.7095 13V0Z" fill="#E52C34"/>
<path fill-rule="evenodd" clip-rule="evenodd" d="M12.855 26L0 13L12.855 0L19.2817 6.50078L12.855 13V26Z" fill="#E52C34"/>
<path d="M113.004 10.3212C112.022 10.3212 111.194 10.5946 110.524 11.1428C109.852 11.691 109.397 12.4504 109.154 13.4241H117.002C116.802 12.7548 116.512 12.1926 116.131 11.736C115.75 11.2794 115.294 10.93 114.763 10.6877C114.233 10.4439 113.646 10.3212 113.004 10.3212ZM121.394 15.1572C121.394 15.5827 121.363 16.0191 121.302 16.4648H115.168H109.035C109.216 17.5799 109.65 18.4371 110.343 19.0335C111.036 19.6314 111.922 19.9311 113.004 19.9311C113.745 19.9311 114.417 19.7634 115.019 19.4295C115.621 19.094 116.091 18.6328 116.433 18.0458L119.385 21.0306C118.975 21.5012 118.514 21.9251 117.997 22.3025C116.555 23.357 114.89 23.8834 113.006 23.8834C110.601 23.8834 108.595 23.0526 106.992 21.3909C105.389 19.7292 104.587 17.6699 104.587 15.2178C104.587 14.2456 104.723 13.3123 104.994 12.4209C105.265 11.5295 105.656 10.7281 106.166 10.02C106.679 9.31025 107.275 8.69682 107.955 8.17968C108.637 7.66253 109.409 7.26187 110.271 6.97923C111.134 6.69503 112.045 6.55371 113.007 6.55371C114.631 6.55371 116.089 6.93885 117.383 7.70913C118.676 8.47941 119.668 9.52301 120.359 10.8415C121.048 12.1569 121.394 13.5965 121.394 15.1572Z" fill="#05174B"/>
<path d="M72.3527 19.7185C73.615 19.7185 74.6485 19.2976 75.4501 18.4559C76.2517 17.6142 76.6525 16.5365 76.6525 15.218C76.6525 13.901 76.2517 12.8217 75.4501 11.98C74.65 11.1383 73.6119 10.7174 72.3389 10.7174C71.0673 10.7174 70.0292 11.1383 69.2276 11.98C68.426 12.8217 68.0252 13.901 68.0252 15.218C68.0252 15.8671 68.1296 16.4759 68.34 17.0427C68.5519 17.6111 68.8468 18.0863 69.2276 18.473C69.6085 18.8582 70.0645 19.161 70.5959 19.3846C71.1241 19.6067 71.7108 19.7185 72.3527 19.7185ZM72.3527 23.8836C70.6896 23.8836 69.1846 23.5093 67.8425 22.7577C66.4987 22.0076 65.4514 20.9687 64.699 19.6409C63.948 18.3131 63.5718 16.8377 63.5718 15.2164C63.5718 12.7239 64.4041 10.6553 66.0688 9.01381C67.7319 7.37231 69.8265 6.55078 72.3527 6.55078C74.8589 6.55078 76.9428 7.37231 78.6059 9.01381C80.2705 10.6569 81.1029 12.7239 81.1029 15.2164C81.1029 17.6903 80.2659 19.7527 78.5921 21.405C76.9182 23.0574 74.8389 23.8836 72.3527 23.8836Z" fill="#05174B"/>
<path d="M96.7996 2.14355H101.339V23.4272H96.7996V14.6404H88.8909V23.4272H84.3208V2.14355H88.8909V10.3542H96.7996V2.14355Z" fill="#05174B"/>
<path fill-rule="evenodd" clip-rule="evenodd" d="M56.5037 14.8243L65.7514 5.4691L62.4359 2.11621L54.1572 10.4868L45.8816 2.11621L42.563 5.47065L51.8123 14.8243V23.4278H56.5037V14.8243Z" fill="#05174B"/>
</svg>
