<svg width="85" height="84" viewBox="0 0 85 84" fill="none" xmlns="http://www.w3.org/2000/svg">
<path d="M41.336 1.51431C41.7201 0.843845 42.6871 0.843845 43.0713 1.51431L43.8496 2.87266C43.9916 3.12055 44.2329 3.29585 44.5126 3.35434L46.0449 3.67479C46.8013 3.83297 47.1001 4.75264 46.5812 5.32519L45.5298 6.48515C45.338 6.69684 45.2458 6.98048 45.2766 7.26452L45.4454 8.82092C45.5287 9.58914 44.7463 10.1575 44.0415 9.84092L42.6134 9.19947C42.3528 9.08241 42.0545 9.08241 41.7939 9.19947L40.3658 9.84092C39.6609 10.1575 38.8786 9.58914 38.9619 8.82092L39.1307 7.26452C39.1615 6.98048 39.0693 6.69684 38.8774 6.48515L37.8261 5.32519C37.3071 4.75264 37.606 3.83297 38.3623 3.67479L39.8947 3.35434C40.1744 3.29585 40.4156 3.12055 40.5577 2.87266L41.336 1.51431Z" fill="#F7BD4C"/>
<path d="M59.5198 6.39908C59.904 5.72861 60.871 5.72861 61.2551 6.39908L62.0334 7.75743C62.1755 8.00532 62.4168 8.18062 62.6964 8.2391L64.2288 8.55956C64.9852 8.71773 65.284 9.63741 64.765 10.21L63.7137 11.3699C63.5218 11.5816 63.4296 11.8652 63.4604 12.1493L63.6292 13.7057C63.7125 14.4739 62.9302 15.0423 62.2253 14.7257L60.7972 14.0842C60.5366 13.9672 60.2384 13.9672 59.9777 14.0842L58.5497 14.7257C57.8448 15.0423 57.0625 14.4739 57.1457 13.7057L57.3145 12.1493C57.3453 11.8652 57.2531 11.5816 57.0613 11.3699L56.0099 10.21C55.491 9.63741 55.7898 8.71773 56.5462 8.55956L58.0785 8.2391C58.3582 8.18062 58.5995 8.00532 58.7415 7.75743L59.5198 6.39908Z" fill="#F7BD4C"/>
<path d="M72.8186 19.6977C73.2028 19.0272 74.1698 19.0272 74.554 19.6977L75.3323 21.056C75.4743 21.3039 75.7156 21.4792 75.9952 21.5377L77.5276 21.8581C78.284 22.0163 78.5828 22.936 78.0639 23.5085L77.0125 24.6685C76.8206 24.8802 76.7285 25.1638 76.7593 25.4479L76.928 27.0043C77.0113 27.7725 76.229 28.3409 75.5241 28.0243L74.096 27.3828C73.8354 27.2658 73.5372 27.2658 73.2766 27.3828L71.8485 28.0243C71.1436 28.3409 70.3613 27.7725 70.4446 27.0043L70.6133 25.4479C70.6441 25.1638 70.552 24.8802 70.3601 24.6685L69.3087 23.5085C68.7898 22.936 69.0886 22.0163 69.845 21.8581L71.3774 21.5377C71.657 21.4792 71.8983 21.3039 72.0403 21.056L72.8186 19.6977Z" fill="#F7BD4C"/>
<path d="M77.4329 37.747C77.8171 37.0765 78.7841 37.0765 79.1682 37.747L79.9465 39.1053C80.0886 39.3532 80.3298 39.5285 80.6095 39.587L82.1419 39.9075C82.8982 40.0656 83.1971 40.9853 82.6781 41.5579L81.6268 42.7178C81.4349 42.9295 81.3427 43.2131 81.3735 43.4972L81.5423 45.0536C81.6256 45.8218 80.8433 46.3902 80.1384 46.0736L78.7103 45.4321C78.4497 45.3151 78.1514 45.3151 77.8908 45.4321L76.4627 46.0736C75.7579 46.3902 74.9755 45.8218 75.0588 45.0536L75.2276 43.4972C75.2584 43.2131 75.1662 42.9295 74.9744 42.7178L73.923 41.5579C73.4041 40.9853 73.7029 40.0656 74.4592 39.9075L75.9916 39.587C76.2713 39.5285 76.5126 39.3532 76.6546 39.1053L77.4329 37.747Z" fill="#F7BD4C"/>
<path d="M72.8186 55.7953C73.2028 55.1249 74.1698 55.1249 74.554 55.7953L75.3323 57.1537C75.4743 57.4016 75.7156 57.5769 75.9952 57.6353L77.5276 57.9558C78.284 58.114 78.5828 59.0337 78.0639 59.6062L77.0125 60.7662C76.8206 60.9778 76.7285 61.2615 76.7593 61.5455L76.928 63.1019C77.0113 63.8702 76.229 64.4385 75.5241 64.1219L74.096 63.4805C73.8354 63.3634 73.5372 63.3634 73.2766 63.4805L71.8485 64.1219C71.1436 64.4385 70.3613 63.8702 70.4446 63.1019L70.6133 61.5455C70.6441 61.2615 70.552 60.9778 70.3601 60.7662L69.3087 59.6062C68.7898 59.0337 69.0886 58.114 69.845 57.9558L71.3774 57.6353C71.657 57.5769 71.8983 57.4016 72.0403 57.1537L72.8186 55.7953Z" fill="#F7BD4C"/>
<path d="M9.98807 55.7953C10.3722 55.1249 11.3392 55.1249 11.7234 55.7953L12.5017 57.1537C12.6437 57.4016 12.885 57.5769 13.1647 57.6353L14.697 57.9558C15.4534 58.114 15.7522 59.0337 15.2333 59.6062L14.1819 60.7662C13.9901 60.9778 13.8979 61.2615 13.9287 61.5455L14.0975 63.1019C14.1808 63.8702 13.3984 64.4385 12.6936 64.1219L11.2655 63.4805C11.0049 63.3634 10.7066 63.3634 10.446 63.4805L9.01792 64.1219C8.31304 64.4385 7.53071 63.8702 7.61401 63.1019L7.78277 61.5455C7.81356 61.2615 7.7214 60.9778 7.52954 60.7662L6.47818 59.6062C5.95924 59.0337 6.25806 58.114 7.01442 57.9558L8.5468 57.6353C8.82645 57.5769 9.06773 57.4016 9.20977 57.1537L9.98807 55.7953Z" fill="#F7BD4C"/>
<path d="M4.96756 37.747C5.35172 37.0765 6.31873 37.0765 6.70289 37.747L7.48119 39.1053C7.62323 39.3532 7.86451 39.5285 8.14416 39.587L9.67654 39.9075C10.4329 40.0656 10.7317 40.9853 10.2128 41.5579L9.16143 42.7178C8.96956 42.9295 8.8774 43.2131 8.9082 43.4972L9.07695 45.0536C9.16025 45.8218 8.37793 46.3902 7.67304 46.0736L6.24496 45.4321C5.98435 45.3151 5.68611 45.3151 5.42549 45.4321L3.99741 46.0736C3.29253 46.3902 2.5102 45.8218 2.5935 45.0536L2.76226 43.4972C2.79306 43.2131 2.7009 42.9295 2.50903 42.7178L1.45767 41.5579C0.93873 40.9853 1.23755 40.0656 1.99391 39.9075L3.52629 39.587C3.80594 39.5285 4.04722 39.3532 4.18926 39.1053L4.96756 37.747Z" fill="#F7BD4C"/>
<path d="M9.98807 19.6977C10.3722 19.0272 11.3392 19.0272 11.7234 19.6977L12.5017 21.056C12.6437 21.3039 12.885 21.4792 13.1647 21.5377L14.697 21.8581C15.4534 22.0163 15.7522 22.936 15.2333 23.5085L14.1819 24.6685C13.9901 24.8802 13.8979 25.1638 13.9287 25.4479L14.0975 27.0043C14.1808 27.7725 13.3984 28.3409 12.6936 28.0243L11.2655 27.3828C11.0049 27.2658 10.7066 27.2658 10.446 27.3828L9.01792 28.0243C8.31304 28.3409 7.53071 27.7725 7.61401 27.0043L7.78277 25.4479C7.81356 25.1638 7.7214 24.8802 7.52954 24.6685L6.47818 23.5085C5.95924 22.936 6.25806 22.0163 7.01442 21.8581L8.5468 21.5377C8.82645 21.4792 9.06773 21.3039 9.20977 21.056L9.98807 19.6977Z" fill="#F7BD4C"/>
<path d="M23.1521 6.39908C23.5363 5.72861 24.5033 5.72861 24.8875 6.39908L25.6658 7.75743C25.8078 8.00532 26.0491 8.18062 26.3287 8.2391L27.8611 8.55956C28.6175 8.71773 28.9163 9.63741 28.3974 10.21L27.346 11.3699C27.1541 11.5816 27.062 11.8652 27.0928 12.1493L27.2615 13.7057C27.3448 14.4739 26.5625 15.0423 25.8576 14.7257L24.4295 14.0842C24.1689 13.9672 23.8707 13.9672 23.6101 14.0842L22.182 14.7257C21.4771 15.0423 20.6948 14.4739 20.7781 13.7057L20.9468 12.1493C20.9776 11.8652 20.8855 11.5816 20.6936 11.3699L19.6422 10.21C19.1233 9.63741 19.4221 8.71773 20.1785 8.55956L21.7109 8.2391C21.9905 8.18062 22.2318 8.00532 22.3738 7.75743L23.1521 6.39908Z" fill="#F7BD4C"/>
<path d="M59.3848 69.0939C59.769 68.4234 60.736 68.4234 61.1201 69.0939L61.8984 70.4523C62.0405 70.7001 62.2817 70.8754 62.5614 70.9339L64.0938 71.2544C64.8501 71.4126 65.149 72.3322 64.63 72.9048L63.5787 74.0647C63.3868 74.2764 63.2946 74.5601 63.3254 74.8441L63.4942 76.4005C63.5775 77.1687 62.7952 77.7371 62.0903 77.4205L60.6622 76.7791C60.4016 76.662 60.1033 76.662 59.8427 76.7791L58.4146 77.4205C57.7098 77.7371 56.9274 77.1687 57.0107 76.4005L57.1795 74.8441C57.2103 74.5601 57.1181 74.2764 56.9263 74.0647L55.8749 72.9048C55.356 72.3322 55.6548 71.4126 56.4111 71.2544L57.9435 70.9339C58.2232 70.8754 58.4645 70.7001 58.6065 70.4523L59.3848 69.0939Z" fill="#F7BD4C"/>
<path d="M23.2876 69.0939C23.6718 68.4234 24.6388 68.4234 25.023 69.0939L25.8013 70.4523C25.9433 70.7001 26.1846 70.8754 26.4642 70.9339L27.9966 71.2544C28.753 71.4126 29.0518 72.3322 28.5329 72.9048L27.4815 74.0647C27.2896 74.2764 27.1975 74.5601 27.2283 74.8441L27.397 76.4005C27.4803 77.1687 26.698 77.7371 25.9931 77.4205L24.565 76.7791C24.3044 76.662 24.0062 76.662 23.7456 76.7791L22.3175 77.4205C21.6126 77.7371 20.8303 77.1687 20.9136 76.4005L21.0823 74.8441C21.1131 74.5601 21.021 74.2764 20.8291 74.0647L19.7777 72.9048C19.2588 72.3322 19.5576 71.4126 20.314 71.2544L21.8464 70.9339C22.126 70.8754 22.3673 70.7001 22.5093 70.4523L23.2876 69.0939Z" fill="#F7BD4C"/>
<path d="M41.336 73.8437C41.7201 73.1732 42.6871 73.1732 43.0713 73.8437L43.8496 75.202C43.9916 75.4499 44.2329 75.6252 44.5126 75.6837L46.0449 76.0041C46.8013 76.1623 47.1001 77.082 46.5812 77.6545L45.5298 78.8145C45.338 79.0262 45.2458 79.3098 45.2766 79.5939L45.4454 81.1503C45.5287 81.9185 44.7463 82.4869 44.0415 82.1703L42.6134 81.5288C42.3528 81.4118 42.0545 81.4118 41.7939 81.5288L40.3658 82.1703C39.6609 82.4869 38.8786 81.9185 38.9619 81.1503L39.1307 79.5939C39.1615 79.3098 39.0693 79.0262 38.8774 78.8145L37.8261 77.6545C37.3071 77.082 37.606 76.1623 38.3623 76.0041L39.8947 75.6837C40.1744 75.6252 40.4156 75.4499 40.5577 75.202L41.336 73.8437Z" fill="#F7BD4C"/>
<path fill-rule="evenodd" clip-rule="evenodd" d="M49.7225 35.1749C49.7225 32.9267 49.1092 30.8918 47.6856 29.4203C46.2662 27.9532 44.0398 27.0461 41.8766 27.0461C39.5866 27.0461 37.502 27.7989 36.0676 29.4203C34.788 30.8667 34.0307 33.0582 34.0307 35.1749V37.2071H32.5596C32.2722 37.2071 32.0136 37.3351 31.8345 37.5395C31.6756 37.7201 31.5788 37.9597 31.5788 38.2232C31.5788 38.2232 31.3895 39.9299 31.3148 41.0272C31.1188 43.9051 31.2254 45.5303 31.3148 48.4134C31.376 50.3878 31.5788 53.4646 31.5788 53.4646C31.5788 53.6591 31.6315 53.8412 31.7234 53.996C31.8958 54.2867 32.2052 54.4807 32.5596 54.4807C32.5596 54.4807 36.6073 54.6941 39.2035 54.7445C41.6906 54.7928 43.0865 54.8064 45.5732 54.7445C47.7699 54.6898 51.1936 54.4807 51.1936 54.4807C51.3775 54.4807 51.5499 54.4281 51.6974 54.3368C51.9838 54.1597 52.1744 53.8352 52.1744 53.4646C52.1744 53.4646 52.6921 48.9476 52.7025 46.0414C52.7134 42.9812 52.1744 38.2232 52.1744 38.2232C52.1744 37.662 51.7357 37.2071 51.1936 37.2071H49.7225V35.1749ZM46.7803 37.2071C46.7803 37.2071 43.3094 37.0497 41.0845 37.0703C39.478 37.0852 36.9729 37.2071 36.9729 37.2071V35.1749C36.9729 33.8769 37.4068 32.4287 38.18 31.5306C39.078 30.4875 40.4211 30.0944 41.8766 30.0944C43.2052 30.0944 44.6902 30.6418 45.5732 31.5306C46.4904 32.4538 46.7803 33.7455 46.7803 35.1749V37.2071ZM40.7005 46.0414C40.3127 45.8215 39.9886 45.3778 39.7641 44.9841C39.5485 44.6059 39.3739 44.2829 39.3739 43.8117C39.3739 43.0345 39.4975 42.2845 40.0282 41.8186C40.4555 41.4434 41.2725 41.2715 41.8766 41.2715C42.586 41.2715 43.2772 41.3197 43.7248 41.8186C44.1317 42.272 44.3981 43.1436 44.3981 43.8117C44.3981 44.2726 44.1957 44.6115 43.9889 44.9841C43.7638 45.389 43.4483 45.8171 43.0527 46.0414L43.8381 50.9244C43.8381 50.9244 42.6442 51.0514 41.8765 51.0514C41.1089 51.0514 39.9151 50.9244 39.9151 50.9244L40.7005 46.0414Z" fill="white"/>
</svg>
