<svg width="142" height="40" viewBox="0 0 142 40" fill="none" xmlns="http://www.w3.org/2000/svg">
<rect width="142" height="40" fill="#F5F5F5"/>
<rect width="1980" height="5047" transform="translate(-984 -1192)" fill="white"/>
<rect width="1980" height="360" transform="translate(-984 -200)" fill="#E9EEFB"/>
<g clip-path="url(#clip0_0_1)" filter="url(#filter0_i_0_1)">
<path d="M10.6385 25.6348C9.80394 26.4346 8.9989 26.9715 7.81449 26.9715C6.02694 26.9715 4.72966 25.5342 4.72966 23.5467V23.5011C4.72966 21.6035 6.02536 20.126 7.66774 20.126C8.91952 20.126 9.69127 20.6773 10.4626 21.5042L10.5861 21.6352L13.0387 18.9537L12.9382 18.8395C11.5708 17.2864 9.95817 16.598 7.6898 16.598C5.77126 16.598 4.01208 17.3133 2.74041 18.6438C1.48823 19.9313 0.799805 21.6768 0.799805 23.5467V23.5949C0.799805 25.4594 1.49257 27.1928 2.74612 28.4747C4.01208 29.7807 5.75314 30.499 7.64233 30.499C10.4358 30.499 11.872 29.3287 13.0089 28.0647L13.1145 27.9401L10.7577 25.5144L10.6385 25.6348ZM45.2276 13.5H41.2967V16.833H39.6991V20.126H41.2967V26.3957C41.2967 29.194 42.476 30.499 45.1533 30.499C46.2962 30.499 47.2416 30.2503 48.1207 29.7165L48.2106 29.6679V26.3959L47.9539 26.5301C47.4225 26.8256 46.8473 26.9715 46.2341 26.9715C45.5276 26.9715 45.2276 26.6447 45.2276 25.8732V20.126H48.2555V16.8332H45.2276V13.5ZM55.934 16.598C53.9703 16.598 52.1583 17.3133 50.8357 18.6291C49.523 19.9246 48.7995 21.6768 48.7995 23.5467V23.5949C48.7995 25.465 49.5187 27.2041 50.8203 28.4868C52.1369 29.7843 53.9311 30.499 55.882 30.499C57.8452 30.499 59.6503 29.7791 60.9759 28.4625C62.2913 27.1637 63.0135 25.4233 63.0135 23.5467V23.5011C63.0135 21.6302 62.2994 19.8883 60.9968 18.6032C59.6798 17.3047 57.884 16.598 55.934 16.598ZM59.084 23.5949C59.084 25.5802 57.7895 26.9715 55.934 26.9715C54.1049 26.9715 52.7304 25.5025 52.7304 23.5467V23.5011C52.7304 21.5132 54.0223 20.126 55.882 20.126C57.7091 20.126 59.084 21.5971 59.084 23.5465V23.5949V23.5949ZM68.0696 18.8752V16.8332H64.1417V30.2108H68.0696V25.0678C68.0696 22.1763 69.357 20.6466 71.7991 20.6466H72.1578V16.601L71.9969 16.598C70.2304 16.5145 68.9349 17.2605 68.0696 18.8752ZM103.395 16.598C101.756 16.598 100.387 17.2308 99.2197 18.5296C98.4853 17.2826 97.1975 16.598 95.5756 16.598C93.8174 16.598 92.7311 17.4791 91.9635 18.3748V16.8332H88.0407V30.2108H91.9635V22.6C91.9635 21.0044 92.6872 20.126 93.9998 20.126C95.6152 20.126 95.9828 21.4731 95.9828 22.6V30.2108H99.9055V22.6C99.9055 21.0044 100.653 20.126 101.962 20.126C103.581 20.126 103.924 21.4731 103.924 22.6V30.2108H107.845V21.5521C107.845 18.3973 106.26 16.598 103.395 16.598ZM22.9841 18.3973C22.1429 17.3316 20.8414 16.5982 19.322 16.5982C16.0177 16.5982 13.1149 19.729 13.1149 23.5469V23.5951C13.1149 27.3741 15.923 30.4992 19.322 30.4992C20.8414 30.4992 22.1427 29.7466 22.9841 28.6626V30.211H26.9142V16.8332H22.9841V18.3973ZM23.1435 23.5949C23.1435 25.5802 21.9018 26.9715 20.1154 26.9715C18.3645 26.9715 17.0422 25.5025 17.0422 23.5467V23.5011C17.0422 21.5132 18.2849 20.126 20.074 20.126C21.8232 20.126 23.1435 21.5971 23.1435 23.5465V23.5949ZM82.446 18.3973C81.602 17.3316 80.302 16.5982 78.7805 16.5982C75.4776 16.5982 72.5742 19.729 72.5742 23.5469V23.5951C72.5742 27.3741 75.3807 30.4992 78.7805 30.4992C80.3022 30.4992 81.602 29.7466 82.446 28.6626V30.211H86.3704V16.8332H82.446V18.3973ZM82.6015 23.5949C82.6015 25.5802 81.3603 26.9715 79.5769 26.9715C77.824 26.9715 76.5057 25.5025 76.5057 23.5467V23.5011C76.5057 21.5132 77.7452 20.126 79.5334 20.126C81.2782 20.126 82.6015 21.5971 82.6015 23.5465V23.5949ZM118.706 16.8332V18.3973C117.864 17.3316 116.566 16.5982 115.041 16.5982C111.738 16.5982 108.837 19.729 108.837 23.5469V23.5951C108.837 27.3741 111.645 30.4992 115.041 30.4992C116.566 30.4992 117.865 29.7466 118.706 28.6626V30.211H122.633V16.8332H118.706ZM118.865 23.5949C118.865 25.5802 117.622 26.9715 115.839 26.9715C114.087 26.9715 112.765 25.5025 112.765 23.5467V23.5011C112.765 21.5132 114.013 20.126 115.793 20.126C117.546 20.126 118.865 21.5971 118.865 23.5465V23.5949H118.865ZM32.3348 20.8154C32.3348 20.2556 32.9277 20.126 33.5115 20.126C35.3136 20.126 36.9909 21.2808 36.9909 21.2808L38.6277 18.2299L38.4969 18.1428C37.084 17.1668 35.2447 16.592 33.583 16.592C31.7726 16.592 28.4081 17.7059 28.4081 20.7293C28.4081 25.4345 35.2183 24.5683 35.2183 26.3338C35.2183 26.8533 34.5594 26.9715 33.8483 26.9715C31.6954 26.9715 29.844 25.5033 29.844 25.5033L27.9786 28.3806L28.1092 28.4769C29.7315 29.7843 31.7403 30.5 33.7557 30.5C36.9574 30.5 39.1467 28.3673 39.1467 26.3338C39.1466 21.8737 32.3348 22.4041 32.3348 20.8154Z" fill="#0071B9"/>
<path d="M137.683 20.6504C139.54 20.6504 141.05 22.1535 141.05 24.0063C141.05 25.8649 139.54 27.3645 137.683 27.3645H129.823C127.963 27.3645 126.45 25.8599 126.45 24.0063C126.45 22.149 127.963 20.6504 129.823 20.6504H137.683V20.6504Z" fill="#FECA00"/>
</g>
<defs>
<filter id="filter0_i_0_1" x="0.799805" y="0" width="141" height="40" filterUnits="userSpaceOnUse" color-interpolation-filters="sRGB">
<feFlood flood-opacity="0" result="BackgroundImageFix"/>
<feBlend mode="normal" in="SourceGraphic" in2="BackgroundImageFix" result="shape"/>
<feColorMatrix in="SourceAlpha" type="matrix" values="0 0 0 0 0 0 0 0 0 0 0 0 0 0 0 0 0 0 127 0" result="hardAlpha"/>
<feOffset dy="50"/>
<feComposite in2="hardAlpha" operator="arithmetic" k2="-1" k3="1"/>
<feColorMatrix type="matrix" values="0 0 0 0 0.145098 0 0 0 0 0.25098 0 0 0 0 0.556863 0 0 0 1 0"/>
<feBlend mode="normal" in2="shape" result="effect1_innerShadow_0_1"/>
</filter>
<clipPath id="clip0_0_1">
<rect width="141" height="40" fill="white" transform="translate(0.799805)"/>
</clipPath>
</defs>
</svg>
