<svg width="115" height="40" viewBox="0 0 115 40" fill="none" xmlns="http://www.w3.org/2000/svg">
<g clip-path="url(#clip0_6_1857)">
<path d="M28.9722 30.4684V12.7305H39.3172V14.961H31.1143V20.4311H38.4812V22.6616H31.1143V28.2379H39.8919V30.4684H28.9722Z" fill="#25408E"/>
<path d="M50.7601 30.5211L47.2073 25.7946L43.6544 30.5211H41.1465L46.0056 24.2013L40.8853 17.6691H43.7067L47.2073 22.555L50.7601 17.6691H53.5292L48.6702 24.2013L53.268 30.5211H50.7601Z" fill="#25408E"/>
<path fill-rule="evenodd" clip-rule="evenodd" d="M56.716 37.3722V28.6095C57.552 30.2558 59.7986 30.9993 61.4705 30.9993C64.9189 30.9993 67.9492 28.1846 67.9492 24.0953C67.9492 19.8998 64.9711 17.3507 61.0003 17.3507C57.0817 17.3507 54.5738 20.9089 54.5738 24.2547V37.3722H56.716ZM60.6346 19.6874C63.8739 19.5281 65.7026 21.2275 65.7026 24.0953C65.7026 27.3349 63.8217 28.8219 61.2615 28.8219C58.2834 28.8219 56.925 26.3258 56.8727 24.9982C56.6637 20.9089 59.0671 19.7405 60.6346 19.6874Z" fill="#25408E"/>
<path d="M69.7774 17.6692H71.9195V19.05C72.9645 17.8285 74.5842 17.4037 76.3083 17.4037V19.7404C76.0471 19.6873 73.487 19.3686 71.9195 22.7675V30.5743H69.7774V17.6692Z" fill="#25408E"/>
<path fill-rule="evenodd" clip-rule="evenodd" d="M83.1005 17.3507C79.4954 17.3507 76.8831 20.3778 76.8831 24.0953C76.8831 28.1315 79.5999 30.9993 83.414 31.0524C85.4517 31.0524 87.1236 30.2027 88.4298 28.9281L87.0191 27.4411C85.9742 28.5033 84.9814 28.9281 83.5185 28.9812C81.5331 29.0343 79.3909 27.7598 79.2342 25.3168H89.2657V24.2547C89.2657 20.3778 87.5938 17.3507 83.1005 17.3507ZM79.2342 23.2987C79.3387 21.3337 80.9061 19.5281 82.9438 19.5281C85.6607 19.5281 87.0191 21.3868 87.0191 23.2987H79.2342Z" fill="#25408E"/>
<path d="M90.3637 28.7158L91.9288 27.284C91.9272 27.331 92.7179 28.1332 92.8193 28.1847C93.1851 28.5034 93.5508 28.7158 94.021 28.822C95.3795 29.1938 97.8351 29.0876 98.0441 27.1757C98.1486 26.1135 97.3649 25.5293 96.4767 25.1576C95.9902 24.9778 95.4849 24.8455 94.9768 24.7125C94.2845 24.5313 93.5868 24.3486 92.9238 24.0423C91.6176 23.4582 90.7817 22.4491 90.7817 20.9621C90.7817 17.0853 96.2154 16.448 98.6711 18.2536C98.7001 18.2832 98.8141 18.3908 98.9624 18.5308L98.967 18.5352C99.352 18.8987 99.9625 19.4751 99.925 19.4751L98.3576 20.7497C97.5738 19.7937 96.8424 19.3158 95.1705 19.3158C94.3345 19.3158 93.1851 19.6875 92.9761 20.5904C92.6626 21.8649 94.0733 22.3429 95.0137 22.6084C95.2583 22.6706 95.5069 22.7287 95.7568 22.7871C96.7877 23.0282 97.8401 23.2742 98.7233 23.8299C100.238 24.7858 100.604 26.857 100.03 28.4503C99.4025 30.2028 97.5216 30.8932 95.8497 30.9463C93.8643 31.0525 92.1401 30.4152 90.7294 28.9813C90.6249 28.9813 90.3637 28.7158 90.3637 28.7158Z" fill="#25408E"/>
<path d="M91.9311 27.2819C91.9296 27.2819 91.9288 27.2826 91.9288 27.284L91.9311 27.2819Z" fill="#25408E"/>
<path d="M102.953 27.284L101.388 28.7158C101.388 28.7158 101.649 28.9813 101.753 28.9813C103.164 30.4152 104.888 31.0525 106.874 30.9463C108.546 30.8932 110.426 30.2028 111.053 28.4503C111.628 26.857 111.262 24.7858 109.747 23.8299C108.864 23.2742 107.812 23.0281 106.781 22.7871C106.531 22.7287 106.282 22.6706 106.038 22.6084C105.097 22.3429 103.686 21.8649 104 20.5904C104.209 19.6875 105.358 19.3158 106.194 19.3158C107.866 19.3158 108.598 19.7937 109.381 20.7497L110.949 19.4751C110.986 19.4751 110.376 18.899 109.991 18.5355L109.986 18.5308C109.838 18.3908 109.724 18.2832 109.695 18.2536C107.239 16.448 101.806 17.0853 101.806 20.9621C101.806 22.4491 102.642 23.4582 103.948 24.0423C104.611 24.3486 105.308 24.5313 106.001 24.7125C106.509 24.8455 107.014 24.9778 107.501 25.1576C108.389 25.5293 109.172 26.1135 109.068 27.1757C108.859 29.0876 106.403 29.1938 105.045 28.822C104.575 28.7158 104.209 28.5034 103.843 28.1847C103.742 28.1332 102.951 27.331 102.953 27.284Z" fill="#25408E"/>
<path d="M102.953 27.284L102.955 27.2819C102.953 27.2819 102.953 27.2826 102.953 27.284Z" fill="#25408E"/>
<path d="M111.576 17.6692V16.2884H111.105V16.0229H112.359V16.2884H111.889V17.6692H111.576Z" fill="#25408E"/>
<path d="M113.928 16.3947V17.6692H114.293V16.0229H113.875L113.457 17.1382L113.039 16.0229H112.621V17.6692H112.883V16.3947L113.353 17.6692H113.457L113.928 16.3947Z" fill="#25408E"/>
<path d="M27.7708 13.8458C26.0989 13.8989 24.7404 15.2797 24.6882 16.9791H24.3747C24.3224 15.2797 22.964 13.8989 21.2921 13.8458V13.6333C22.964 13.5802 24.3224 12.1994 24.3747 10.5H24.6882C24.7404 12.1994 26.0989 13.5802 27.7708 13.6333V13.8458Z" fill="#25408E"/>
<path fill-rule="evenodd" clip-rule="evenodd" d="M12.88 26.273L14.4474 30.5216H16.5896L9.84964 12.7306H7.394L0.601807 30.5216H2.84846L4.41589 26.273H12.88ZM5.35635 24.0956L8.54345 15.2798L11.9918 24.0956H5.35635Z" fill="#25408E"/>
<path d="M18.0006 12.7306V30.5216H20.195V12.7306H18.0006Z" fill="#25408E"/>
<path d="M23.4863 30.5217V17.9352H25.6807V30.5217H23.4863Z" fill="#25408E"/>
</g>
<defs>
<clipPath id="clip0_6_1857">
<rect width="114" height="40" fill="white" transform="translate(0.599854)"/>
</clipPath>
</defs>
</svg>
