<svg width="103" height="40" viewBox="0 0 103 40" fill="none" xmlns="http://www.w3.org/2000/svg">
<g clip-path="url(#clip0_58_1033)" filter="url(#filter0_i_58_1033)">
<path d="M6.96831 25.1973C7.11107 25.5587 7.06737 26.0246 7.00035 26.3054C6.87798 26.8012 6.54874 27.3089 5.58142 27.3089C4.66654 27.3089 4.11295 26.7713 4.11295 25.953V24.5074H0.202866L0.199951 25.6632C0.199951 28.9935 2.75812 30 5.49984 30C8.13667 30 10.3073 29.0771 10.6511 26.5862C10.8289 25.2959 10.6948 24.4506 10.6366 24.131C10.283 22.3325 8.30251 21.2591 6.60534 20.3393C5.35164 19.6598 4.25253 19.0642 4.07799 18.3218C4.00806 18.0231 4.02846 17.7036 4.06342 17.5333C4.1654 17.0584 4.48298 16.5328 5.39495 16.5328C6.24573 16.5328 6.74978 17.0734 6.74978 17.8887V18.8116H10.3831V17.7633C10.3831 14.5077 7.53355 14 5.4707 14C2.87757 14 0.759368 14.8781 0.371856 17.3093C0.266965 17.9813 0.252396 18.5787 0.403905 19.3284C0.768537 21.071 2.61458 22.1065 4.27014 23.0351C5.51171 23.7315 6.64616 24.3679 6.96831 25.1973Z" fill="black"/>
<path d="M19.0368 15.8578L17.041 29.4117H13.1047L15.8056 14.472H22.2884L24.9806 29.4117H21.0589L19.1184 15.8578H19.0368Z" fill="black"/>
<path d="M84.6223 26.201L84.4242 14.472H88.0313V29.2564H82.845L79.2438 17.1242H79.1651L79.3661 29.2564H75.7795V14.472H81.193L84.5436 26.201H84.6223Z" fill="black"/>
<path d="M37.8325 14.472L36.0318 25.8933H35.9532L34.1555 14.472H28.2088L27.8853 29.4117H31.5361L31.6264 15.9803H31.7051L34.1438 29.4117H37.8412L40.277 15.9803H40.3527L40.4489 29.4117H44.0909L43.7762 14.472H37.8325Z" fill="black"/>
<path d="M54.3905 26.2637C54.4546 25.9829 54.5012 25.5289 54.3584 25.1705C54.0402 24.3505 52.9181 23.7207 51.6899 23.0312C50.0505 22.111 48.2221 21.0846 47.864 19.3583C47.7125 18.6116 47.7241 18.0262 47.829 17.3632C48.2078 14.9469 50.3085 14.0807 52.8725 14.0807C54.9178 14.0807 57.744 14.5855 57.744 17.8052V18.8446H54.137V17.9306C54.137 17.1182 53.6446 16.5926 52.7996 16.5926C51.8964 16.5926 51.5847 17.1033 51.4798 17.5842C51.4448 17.7455 51.4244 18.0591 51.4943 18.3577C51.6677 19.094 52.7564 19.6846 53.9979 20.3582C55.6775 21.2694 57.637 22.3324 57.9888 24.1132C58.0529 24.4268 58.1782 25.2601 58.0004 26.5414C57.6595 29.0085 55.5093 29.9194 52.9016 29.9194C50.189 29.9194 47.6542 28.9249 47.6542 25.6275L47.66 24.4865H51.5293L51.5322 25.9202C51.5322 26.7206 52.0829 27.2582 52.9832 27.2582C53.9447 27.2582 54.271 26.7595 54.3905 26.2637Z" fill="black"/>
<path d="M66.5984 27.1776C67.6094 27.1776 67.9241 26.4608 67.994 26.0934C68.0231 25.9321 68.0319 25.7171 68.029 25.5229V14.466H71.7147V25.1824C71.7234 25.4572 71.6972 26.0217 71.6826 26.1621C71.4233 28.9517 69.2731 29.8567 66.5955 29.8567C63.9149 29.8567 61.7618 28.9517 61.5054 26.1621C61.4937 26.0217 61.4675 25.4542 61.4733 25.1824V14.466H65.1561V25.5199C65.1561 25.7141 65.162 25.9321 65.1911 26.0904C65.2727 26.4578 65.5786 27.1776 66.5984 27.1776Z" fill="black"/>
<path d="M98.4938 25.9382C98.4268 26.3354 98.0567 27.0194 97.002 27.0194C95.9473 27.0194 95.5802 26.3354 95.5219 25.9441C95.4928 25.7739 95.4811 25.5648 95.484 25.3767V18.543C95.484 18.3011 95.5015 18.0352 95.5452 17.8381C95.6239 17.4648 95.9327 16.7479 96.9962 16.7479C98.1092 16.7479 98.3889 17.5066 98.4501 17.8381C98.4909 18.0502 98.4996 18.4086 98.4967 18.4056V19.2419H102.171V18.7431C102.171 18.7431 102.185 18.2324 102.139 17.7575C101.871 14.9589 99.6068 14.0658 97.0224 14.0658C94.4351 14.0658 92.2266 14.9649 91.9032 17.7575C91.874 18.0084 91.842 18.4773 91.842 18.7431L91.8391 25.0332C91.8449 25.3139 91.8507 25.52 91.8915 26.0188C92.1392 28.7367 94.4351 29.7074 97.0224 29.7074C99.6039 29.7074 101.906 28.7367 102.147 26.0188C102.191 25.52 102.197 25.3139 102.2 25.0332V21.022H97.0311V23.2023H98.5258V25.3707C98.5287 25.5588 98.52 25.7679 98.4938 25.9382Z" fill="black"/>
</g>
<defs>
<filter id="filter0_i_58_1033" x="0.199951" y="0" width="102" height="40" filterUnits="userSpaceOnUse" color-interpolation-filters="sRGB">
<feFlood flood-opacity="0" result="BackgroundImageFix"/>
<feBlend mode="normal" in="SourceGraphic" in2="BackgroundImageFix" result="shape"/>
<feColorMatrix in="SourceAlpha" type="matrix" values="0 0 0 0 0 0 0 0 0 0 0 0 0 0 0 0 0 0 127 0" result="hardAlpha"/>
<feOffset dy="50"/>
<feComposite in2="hardAlpha" operator="arithmetic" k2="-1" k3="1"/>
<feColorMatrix type="matrix" values="0 0 0 0 0.145098 0 0 0 0 0.25098 0 0 0 0 0.556863 0 0 0 1 0"/>
<feBlend mode="normal" in2="shape" result="effect1_innerShadow_58_1033"/>
</filter>
<clipPath id="clip0_58_1033">
<rect width="102" height="40" fill="white" transform="translate(0.199951)"/>
</clipPath>
</defs>
</svg>
