<svg width="183" height="40" viewBox="0 0 183 40" fill="none" xmlns="http://www.w3.org/2000/svg">
<g clip-path="url(#clip0_58_1041)" filter="url(#filter0_i_58_1041)">
<path d="M11.0428 29.6883V16.6245H8.11477V21.875H3.32784V16.6245H0.399841V29.7501H3.32784V24.8126H8.11477V29.6883H11.0428Z" fill="#C8102E"/>
<path d="M44.7733 29.6874V16.5619H42.5773L38.4103 23.5626L34.2432 16.5619H32.0472V29.6874H34.9752V23.0624L37.6211 27.625H39.2551L41.9018 23.1242V29.6874H44.7733Z" fill="#C8102E"/>
<path d="M13.1259 24.9379C13.1259 19.9996 16.8988 15.9999 21.5729 15.9999C26.2455 15.9999 30.019 19.9996 30.0198 24.9379C30.0198 26.6872 29.5127 28.313 28.7243 29.6874H24.6701C25.9092 28.6253 26.6976 27.0004 26.6976 25.1249C26.6976 21.9995 24.3887 19.4376 21.5729 19.4376C18.757 19.4376 16.4489 21.9995 16.4489 25.1249C16.4489 27.0004 17.2373 28.6253 18.4756 29.6874H14.4214C13.5766 28.313 13.1259 26.6872 13.1259 24.9379Z" fill="#C8102E"/>
<path d="M21.5733 28.688C20.2786 28.688 19.208 27.7503 18.8138 26.4377H24.3328C23.9386 27.7503 22.8688 28.688 21.5733 28.688Z" fill="#C8102E"/>
<path d="M50.1799 21.8125V19.3125H56.1487V16.4994H47.1947V29.625H56.1487V26.8126H50.1799V24.5623H55.4167V21.8125H50.1799Z" fill="#C8102E"/>
<path fill-rule="evenodd" clip-rule="evenodd" d="M139.321 29.6876C141.968 29.6876 143.545 28.2505 143.545 26.0628C143.545 24.6875 142.813 23.3122 141.404 22.9373C142.418 22.5624 143.038 21.2498 143.038 20.0624C143.038 17.9372 141.573 16.562 138.983 16.562H133.352V29.6876H139.321ZM136.28 21.9996V19.3125H138.477C139.603 19.3125 140.222 19.7492 140.222 20.5625C140.222 21.375 139.603 21.9996 138.477 21.9996H136.28ZM138.983 24.3752C140.053 24.3752 140.673 24.8119 140.673 25.6252C140.673 26.4377 140.109 27.0005 138.927 27.0005H136.28V24.3752H138.983Z" fill="#C8102E"/>
<path fill-rule="evenodd" clip-rule="evenodd" d="M147.599 27.438H152.611L153.343 29.6884H156.496L151.484 16.562H148.669L143.657 29.6876H146.811L147.599 27.438ZM150.077 20.312L151.654 24.7501H148.5L150.077 20.312Z" fill="#C8102E"/>
<path d="M166.126 29.6884H168.378V16.562H165.45V23.9377L159.763 16.562H157.51V29.6876H160.438V22.4998L166.126 29.6884Z" fill="#C8102E"/>
<path d="M173.784 27.0623L175.53 24.8128L178.74 29.751H182.4L177.501 22.3745L182.006 16.6246H178.514L173.784 22.625V16.6246H170.856V29.751H173.784V27.0623Z" fill="#C8102E"/>
<path fill-rule="evenodd" clip-rule="evenodd" d="M81.5452 25.8749L83.7976 29.6876H87.2326L84.4732 25.1251C85.7122 24.3126 86.4442 22.8747 86.4442 21.1871C86.4442 18.3122 84.4739 16.562 81.5452 16.562H76.3648V29.6876H79.3492V25.8749H81.5452ZM81.4895 23.0008H79.2928V19.5004H81.4895C82.615 19.5004 83.5162 20.1884 83.5162 21.2506C83.5162 22.3135 82.6157 23.0008 81.4895 23.0008Z" fill="#C8102E"/>
<path d="M91.6254 21.8125V19.3125H97.5942V16.4994H88.6402V29.625H97.5942V26.8126H91.6254V24.5623H96.8622V21.8125H91.6254Z" fill="#C8102E"/>
<path fill-rule="evenodd" clip-rule="evenodd" d="M104.351 29.7502C108.069 29.7502 110.715 27.0005 110.715 23.1252C110.715 19.2499 108.012 16.562 104.351 16.6246H99.6217V29.7502H104.351ZM104.352 19.563C106.266 19.563 107.73 21.1245 107.73 23.1252C107.73 25.1877 106.266 26.75 104.352 26.8126H102.55V19.563H104.352Z" fill="#C8102E"/>
<path d="M115.22 29.6884V16.562L112.291 16.5612V29.6884H115.22Z" fill="#C8102E"/>
<path d="M123.104 19.4996H126.482V16.562H116.797V19.4996H120.176V29.6876H123.104V19.4996Z" fill="#C8102E"/>
<path d="M68.8748 26.9379C70.1702 26.9379 71.1279 26.1872 71.5786 24.9998H74.6751C74.0559 28 71.8599 29.9999 68.8755 29.9999C65.3276 29.9999 62.6253 27.1249 62.6253 23.1878C62.6253 19.2499 65.3276 16.3749 68.8755 16.3749C71.8599 16.3749 74.0559 18.3748 74.6751 21.375H71.5786C71.1279 20.125 70.1702 19.4378 68.8755 19.4378C66.9609 19.4378 65.609 21.0001 65.609 23.1878C65.609 25.3747 66.9609 26.9379 68.8748 26.9379Z" fill="#C8102E"/>
</g>
<defs>
<filter id="filter0_i_58_1041" x="0.399841" y="0" width="182" height="40" filterUnits="userSpaceOnUse" color-interpolation-filters="sRGB">
<feFlood flood-opacity="0" result="BackgroundImageFix"/>
<feBlend mode="normal" in="SourceGraphic" in2="BackgroundImageFix" result="shape"/>
<feColorMatrix in="SourceAlpha" type="matrix" values="0 0 0 0 0 0 0 0 0 0 0 0 0 0 0 0 0 0 127 0" result="hardAlpha"/>
<feOffset dy="50"/>
<feComposite in2="hardAlpha" operator="arithmetic" k2="-1" k3="1"/>
<feColorMatrix type="matrix" values="0 0 0 0 0.145098 0 0 0 0 0.25098 0 0 0 0 0.556863 0 0 0 1 0"/>
<feBlend mode="normal" in2="shape" result="effect1_innerShadow_58_1041"/>
</filter>
<clipPath id="clip0_58_1041">
<rect width="182" height="40" fill="white" transform="translate(0.399841)"/>
</clipPath>
</defs>
</svg>
