<svg width="56" height="40" viewBox="0 0 56 40" fill="none" xmlns="http://www.w3.org/2000/svg">
<path d="M5.77783 37H49.7876L27.8995 14.8134L5.77783 37Z" fill="#25408E"/>
<path d="M24.1673 9.23337L23.0154 8.05606L28.0443 3L29.6902 4.68192L27.8785 8.29629L31.5722 6.60535L33.1559 8.22416L28.1269 13.2802L26.9131 12.0398L29.5676 9.3712L25.9362 11.0412L25.1855 10.2738L26.8733 6.59634L24.1673 9.23337Z" fill="#25408E"/>
<path d="M24.5692 16.4938L25.8654 15.2115L23.9154 13.1857L22.7483 8.26325L21.2625 9.73296L22.0354 12.5255L19.424 11.5508L18.023 12.9361L22.4751 14.3852L24.5692 16.4938Z" fill="#25408E"/>
<path fill-rule="evenodd" clip-rule="evenodd" d="M15.5592 15.1461C16.7429 13.9752 19.2008 13.7991 20.6177 15.2713C21.7728 16.4715 22.3941 18.7073 20.6485 20.4337C19.4645 21.6039 17.2794 22.2969 15.4429 20.3889C13.7709 18.6516 14.3752 16.3169 15.5592 15.1461ZM16.7397 18.8525C17.8344 19.9902 18.7926 20.2005 19.5763 19.4254C20.36 18.6503 20.3181 17.8855 19.0499 16.5678C17.9383 15.4127 17.004 15.8197 16.544 16.2748C15.8749 16.9365 15.8197 17.8968 16.7397 18.8525Z" fill="#25408E"/>
<path d="M9.11871 31.7463L12.632 28.271L11.6672 27.2692L9.43639 29.4751L8.36516 28.3618L10.1528 26.5939L9.14317 25.5458L7.35556 27.3127L6.43777 26.3592L8.59517 24.2251L7.631 23.2237L4.12884 26.6873L9.11871 31.7463Z" fill="#25408E"/>
<path d="M4.9374 35.9088L8.36617 32.5182L7.22409 31.3309L5.07051 33.4614L1.27672 29.5186L0.0012207 30.78L4.9374 35.9088Z" fill="#25408E"/>
<path fill-rule="evenodd" clip-rule="evenodd" d="M14.3541 22.2719C14.5041 22.2455 17.6587 23.3365 17.6587 23.3365L16.3517 24.6291L11.9969 23.4653L14.6909 26.2636L13.3738 27.5662L8.39533 22.4841L10.9778 19.9044C12.1894 18.7886 13.4001 19.4529 13.4001 19.4529C14.8064 20.2012 14.4611 21.7597 14.3701 22.1707C14.3555 22.2366 14.3474 22.273 14.3541 22.2719ZM11.942 23.4183C11.942 23.4183 12.0408 23.3613 12.7727 22.6386C13.5043 21.9147 12.7476 21.3084 12.7476 21.3084C12.3038 20.8476 11.7676 21.2021 11.7101 21.2591C11.6725 21.2963 11.5792 21.3807 11.4648 21.4841C11.1664 21.7539 10.7244 22.1535 10.7538 22.1839L11.942 23.4183Z" fill="#25408E"/>
<path d="M29.4126 14.5942L32.8995 18.1574L33.9361 17.1147L31.766 14.8969L32.8652 13.7921L34.5826 15.5474L35.6404 14.4841L33.9126 12.7181L34.7319 11.8947L36.9226 14.1334L37.9386 13.112L34.4418 9.53817L29.4126 14.5942Z" fill="#25408E"/>
<path d="M44.3975 19.7124L45.6934 21.0372L41.8878 24.8628L44.0166 27.0378L42.7929 28.2688L39.3683 24.7688L44.3975 19.7124Z" fill="#25408E"/>
<path d="M48.7271 24.1382L43.6978 29.1943L44.9628 30.4865L49.9921 25.4308L48.7271 24.1382Z" fill="#25408E"/>
<path d="M47.256 32.8316L46.073 31.6224L51.1026 26.5666L52.8203 28.321L51.3526 33.5706L54.6816 30.2235L55.8335 31.4008L50.8046 36.4566L49.3026 34.9225L50.5959 29.4114L47.256 32.8316Z" fill="#25408E"/>
<path fill-rule="evenodd" clip-rule="evenodd" d="M39.0698 14.2677L42.1243 17.3897C43.0583 18.7647 41.8657 19.9427 41.8657 19.9427C40.6223 21.0263 39.4891 20.3935 39.4891 20.3935C39.457 20.5294 38.4112 23.7912 38.4112 23.7912L37.0846 22.4351L38.0735 17.8753L35.3259 20.6376L34.03 19.3134L39.0698 14.2677ZM39.0514 18.7274C39.6172 19.3054 40.2592 18.8684 40.2592 18.8684C40.9911 18.1711 40.4833 17.6947 40.3252 17.5464C40.3131 17.5351 40.303 17.5256 40.2957 17.5182C40.1928 17.4132 39.37 16.5721 39.37 16.5721L38.1676 17.7813L39.0514 18.7274Z" fill="#25408E"/>
</svg>
