<svg width="67" height="40" viewBox="0 0 67 40" fill="none" xmlns="http://www.w3.org/2000/svg">
<path d="M0 14.1559V17.9094L9.8356 16.7956V12.7329L0 14.1559ZM3.13871 18.1377V31H6.73962V17.7589L3.13871 18.1377ZM11.1639 12.5408V31H14.9583V11.9916L11.1639 12.5408ZM15.6652 11.8892V16.1356L21.1442 15.515V11.0967L15.6652 11.8892ZM15.6652 19.2961V23.6199L19.2618 23.418V18.9774L15.6652 19.2961ZM15.6652 26.7364V31H21.1442V26.5663L15.6652 26.7364ZM35.3137 9.03999V31H40.2878V8.32023L35.3137 9.03999ZM41.2167 8.18568V13.237L48.4655 12.4165V7.13663L41.2167 8.18568ZM41.2167 17.0359V22.1808L45.9678 21.9137V16.617L41.2167 17.0359ZM41.2167 25.9413V31H48.4655V25.716L41.2167 25.9413ZM22.594 10.8866V31H26.9161V10.261L22.594 10.8866ZM27.7229 26.362V30.9998H33.9968V26.167L27.7229 26.362ZM64.7169 6.88831C63.1449 5.35923 60.8399 4.73204 58.3187 5.10491V10.7074C59.3397 10.649 60.167 11.0391 60.5356 11.8245C61.1176 13.0626 60.5171 14.9204 59.1006 16.6416C56.9143 19.2977 51.1004 24.7343 51.1004 24.7343L59.4465 24.4518C64.5461 19.3227 66.3774 16.2094 66.706 12.3237C66.8786 10.268 66.1539 8.28724 64.7169 6.88831ZM67 31V25.1378L50.0717 25.6628L67 31ZM50.0717 25.6626L50.0735 30.9998H67L50.0717 25.6626ZM57.3456 5.23067C52.4278 6.30891 50.0129 10.0337 50.2916 16.1114L55.535 15.6324C55.2962 12.1987 56.3163 11.3842 57.3481 10.9364L57.3456 5.23067Z" fill="#25408E"/>
</svg>
