<svg width="183" height="40" viewBox="0 0 183 40" fill="none" xmlns="http://www.w3.org/2000/svg">
<g clip-path="url(#clip0_6_1870)">
<path d="M11.0428 29.6883V16.6245H8.11483V21.875H3.3279V16.6245H0.399902V29.7501H3.3279V24.8126H8.11483V29.6883H11.0428Z" fill="#25408E"/>
<path d="M44.7734 29.6874V16.5619H42.5774L38.4104 23.5626L34.2433 16.5619H32.0473V29.6874H34.9753V23.0624L37.6212 27.625H39.2552L41.9018 23.1242V29.6874H44.7734Z" fill="#25408E"/>
<path d="M13.126 24.9379C13.126 19.9996 16.8988 15.9999 21.5729 15.9999C26.2455 15.9999 30.0191 19.9996 30.0198 24.9379C30.0198 26.6872 29.5128 28.313 28.7244 29.6874H24.6702C25.9092 28.6253 26.6976 27.0004 26.6976 25.1249C26.6976 21.9995 24.3888 19.4376 21.5729 19.4376C18.757 19.4376 16.4489 21.9995 16.4489 25.1249C16.4489 27.0004 17.2373 28.6253 18.4757 29.6874H14.4215C13.5766 28.313 13.126 26.6872 13.126 24.9379Z" fill="#25408E"/>
<path d="M21.5734 28.688C20.2786 28.688 19.2081 27.7503 18.8139 26.4377H24.3328C23.9386 27.7503 22.8688 28.688 21.5734 28.688Z" fill="#25408E"/>
<path d="M50.1799 21.8125V19.3125H56.1488V16.4994H47.1948V29.625H56.1488V26.8126H50.1799V24.5623H55.4168V21.8125H50.1799Z" fill="#25408E"/>
<path fill-rule="evenodd" clip-rule="evenodd" d="M139.321 29.6876C141.968 29.6876 143.545 28.2505 143.545 26.0628C143.545 24.6875 142.813 23.3122 141.404 22.9373C142.418 22.5624 143.038 21.2498 143.038 20.0624C143.038 17.9372 141.574 16.562 138.983 16.562H133.352V29.6876H139.321ZM136.28 21.9996V19.3125H138.477C139.603 19.3125 140.222 19.7492 140.222 20.5625C140.222 21.375 139.603 21.9996 138.477 21.9996H136.28ZM138.983 24.3752C140.053 24.3752 140.673 24.8119 140.673 25.6252C140.673 26.4377 140.11 27.0005 138.927 27.0005H136.28V24.3752H138.983Z" fill="#25408E"/>
<path fill-rule="evenodd" clip-rule="evenodd" d="M147.599 27.438H152.611L153.343 29.6884H156.496L151.484 16.562H148.669L143.657 29.6876H146.811L147.599 27.438ZM150.077 20.312L151.654 24.7501H148.5L150.077 20.312Z" fill="#25408E"/>
<path d="M166.126 29.6884H168.378V16.562H165.45V23.9377L159.763 16.562H157.51V29.6876H160.438V22.4998L166.126 29.6884Z" fill="#25408E"/>
<path d="M173.784 27.0623L175.53 24.8128L178.74 29.751H182.4L177.501 22.3745L182.006 16.6246H178.514L173.784 22.625V16.6246H170.856V29.751H173.784V27.0623Z" fill="#25408E"/>
<path fill-rule="evenodd" clip-rule="evenodd" d="M81.5452 25.8749L83.7977 29.6876H87.2327L84.4732 25.1251C85.7123 24.3126 86.4443 22.8747 86.4443 21.1871C86.4443 18.3122 84.474 16.562 81.5452 16.562H76.3648V29.6876H79.3492V25.8749H81.5452ZM81.4895 23.0008H79.2928V19.5004H81.4895C82.615 19.5004 83.5163 20.1884 83.5163 21.2506C83.5163 22.3135 82.6158 23.0008 81.4895 23.0008Z" fill="#25408E"/>
<path d="M91.6254 21.8125V19.3125H97.5943V16.4994H88.6403V29.625H97.5943V26.8126H91.6254V24.5623H96.8623V21.8125H91.6254Z" fill="#25408E"/>
<path fill-rule="evenodd" clip-rule="evenodd" d="M104.352 29.7502C108.069 29.7502 110.715 27.0005 110.715 23.1252C110.715 19.2499 108.012 16.562 104.352 16.6246H99.6217V29.7502H104.352ZM104.352 19.563C106.266 19.563 107.73 21.1245 107.73 23.1252C107.73 25.1877 106.266 26.75 104.352 26.8126H102.55V19.563H104.352Z" fill="#25408E"/>
<path d="M115.22 29.6884V16.562L112.291 16.5612V29.6884H115.22Z" fill="#25408E"/>
<path d="M123.104 19.4996H126.482V16.562H116.797V19.4996H120.176V29.6876H123.104V19.4996Z" fill="#25408E"/>
<path d="M68.8748 26.9379C70.1703 26.9379 71.128 26.1872 71.5786 24.9998H74.6751C74.056 28 71.86 29.9999 68.8756 29.9999C65.3277 29.9999 62.6254 27.1249 62.6254 23.1878C62.6254 19.2499 65.3277 16.3749 68.8756 16.3749C71.86 16.3749 74.056 18.3748 74.6751 21.375H71.5786C71.128 20.125 70.1703 19.4378 68.8756 19.4378C66.961 19.4378 65.6091 21.0001 65.6091 23.1878C65.6091 25.3747 66.961 26.9379 68.8748 26.9379Z" fill="#25408E"/>
</g>
<defs>
<clipPath id="clip0_6_1870">
<rect width="182" height="40" fill="white" transform="translate(0.399902)"/>
</clipPath>
</defs>
</svg>
