<svg width="115" height="40" viewBox="0 0 115 40" fill="none" xmlns="http://www.w3.org/2000/svg">
<g clip-path="url(#clip0_58_1028)" filter="url(#filter0_i_58_1028)">
<path d="M28.9723 30.4684V12.7305H39.3173V14.961H31.1144V20.4311H38.4814V22.6616H31.1144V28.2379H39.8921V30.4684H28.9723Z" fill="#E43225"/>
<path d="M50.7602 30.5211L47.2074 25.7946L43.6545 30.5211H41.1467L46.0057 24.2013L40.8854 17.6691H43.7068L47.2074 22.555L50.7602 17.6691H53.5294L48.6703 24.2013L53.2681 30.5211H50.7602Z" fill="#E43225"/>
<path fill-rule="evenodd" clip-rule="evenodd" d="M56.7161 37.3722V28.6095C57.5521 30.2558 59.7987 30.9993 61.4707 30.9993C64.919 30.9993 67.9494 28.1846 67.9494 24.0953C67.9494 19.8998 64.9712 17.3507 61.0004 17.3507C57.0818 17.3507 54.574 20.9089 54.574 24.2547V37.3722H56.7161ZM60.6347 19.6874C63.874 19.5281 65.7027 21.2275 65.7027 24.0953C65.7027 27.3349 63.8218 28.8219 61.2617 28.8219C58.2835 28.8219 56.9251 26.3258 56.8728 24.9982C56.6639 20.9089 59.0673 19.7405 60.6347 19.6874Z" fill="#E43225"/>
<path d="M69.7775 17.6692H71.9197V19.05C72.9646 17.8285 74.5843 17.4037 76.3085 17.4037V19.7404C76.0472 19.6873 73.4871 19.3686 71.9197 22.7675V30.5743H69.7775V17.6692Z" fill="#E43225"/>
<path fill-rule="evenodd" clip-rule="evenodd" d="M83.1007 17.3507C79.4956 17.3507 76.8832 20.3778 76.8832 24.0953C76.8832 28.1315 79.6001 30.9993 83.4141 31.0524C85.4518 31.0524 87.1237 30.2027 88.4299 28.9281L87.0192 27.4411C85.9743 28.5033 84.9816 28.9281 83.5186 28.9812C81.5332 29.0343 79.3911 27.7598 79.2343 25.3168H89.2659V24.2547C89.2659 20.3778 87.594 17.3507 83.1007 17.3507ZM79.2343 23.2987C79.3388 21.3337 80.9062 19.5281 82.9439 19.5281C85.6608 19.5281 87.0192 21.3868 87.0192 23.2987H79.2343Z" fill="#E43225"/>
<path d="M90.3638 28.7158L91.9289 27.284C91.9273 27.331 92.718 28.1332 92.8194 28.1847C93.1852 28.5034 93.5509 28.7158 94.0211 28.822C95.3796 29.1938 97.8352 29.0876 98.0442 27.1757C98.1487 26.1135 97.365 25.5293 96.4768 25.1576C95.9903 24.9778 95.485 24.8455 94.9769 24.7125C94.2846 24.5313 93.5869 24.3486 92.9239 24.0423C91.6177 23.4582 90.7818 22.4491 90.7818 20.9621C90.7818 17.0853 96.2155 16.448 98.6712 18.2536C98.7002 18.2832 98.8142 18.3908 98.9625 18.5308L98.9671 18.5352C99.3521 18.8987 99.9627 19.4751 99.9251 19.4751L98.3577 20.7497C97.574 19.7937 96.8425 19.3158 95.1706 19.3158C94.3346 19.3158 93.1852 19.6875 92.9762 20.5904C92.6627 21.8649 94.0734 22.3429 95.0138 22.6084C95.2585 22.6706 95.5071 22.7287 95.7569 22.7871C96.7879 23.0282 97.8403 23.2742 98.7234 23.8299C100.239 24.7858 100.604 26.857 100.03 28.4503C99.4026 30.2028 97.5217 30.8932 95.8498 30.9463C93.8644 31.0525 92.1402 30.4152 90.7295 28.9813C90.625 28.9813 90.3638 28.7158 90.3638 28.7158Z" fill="#E43225"/>
<path d="M91.9312 27.2819C91.9297 27.2819 91.9289 27.2826 91.9289 27.284L91.9312 27.2819Z" fill="#E43225"/>
<path d="M102.953 27.284L101.388 28.7158C101.388 28.7158 101.649 28.9813 101.753 28.9813C103.164 30.4152 104.888 31.0525 106.874 30.9463C108.546 30.8932 110.427 30.2028 111.054 28.4503C111.628 26.857 111.263 24.7858 109.747 23.8299C108.864 23.2742 107.812 23.0281 106.781 22.7871C106.531 22.7287 106.282 22.6706 106.038 22.6084C105.097 22.3429 103.687 21.8649 104 20.5904C104.209 19.6875 105.359 19.3158 106.194 19.3158C107.866 19.3158 108.598 19.7937 109.382 20.7497L110.949 19.4751C110.987 19.4751 110.376 18.899 109.991 18.5355L109.986 18.5308C109.838 18.3908 109.724 18.2832 109.695 18.2536C107.239 16.448 101.806 17.0853 101.806 20.9621C101.806 22.4491 102.642 23.4582 103.948 24.0423C104.611 24.3486 105.308 24.5313 106.001 24.7125C106.509 24.8455 107.014 24.9778 107.501 25.1576C108.389 25.5293 109.173 26.1135 109.068 27.1757C108.859 29.0876 106.403 29.1938 105.045 28.822C104.575 28.7158 104.209 28.5034 103.843 28.1847C103.742 28.1332 102.951 27.331 102.953 27.284Z" fill="#E43225"/>
<path d="M102.953 27.284L102.955 27.2819C102.954 27.2819 102.953 27.2826 102.953 27.284Z" fill="#E43225"/>
<path d="M111.576 17.6692V16.2884H111.106V16.0229H112.359V16.2884H111.889V17.6692H111.576Z" fill="#E43225"/>
<path d="M113.928 16.3947V17.6692H114.293V16.0229H113.875L113.458 17.1382L113.04 16.0229H112.622V17.6692H112.883V16.3947L113.353 17.6692H113.458L113.928 16.3947Z" fill="#E43225"/>
<path d="M27.7709 13.8458C26.099 13.8989 24.7405 15.2797 24.6883 16.9791H24.3748C24.3226 15.2797 22.9641 13.8989 21.2922 13.8458V13.6333C22.9641 13.5802 24.3226 12.1994 24.3748 10.5H24.6883C24.7405 12.1994 26.099 13.5802 27.7709 13.6333V13.8458Z" fill="#F7971D"/>
<path fill-rule="evenodd" clip-rule="evenodd" d="M12.8801 26.273L14.4476 30.5216H16.5897L9.84977 12.7306H7.39413L0.601929 30.5216H2.84858L4.41601 26.273H12.8801ZM5.35647 24.0956L8.54357 15.2798L11.9919 24.0956H5.35647Z" fill="#F7971D"/>
<path d="M18.0008 12.7306V30.5216H20.1952V12.7306H18.0008Z" fill="#F7971D"/>
<path d="M23.4865 30.5217V17.9352H25.6809V30.5217H23.4865Z" fill="#F7971D"/>
</g>
<defs>
<filter id="filter0_i_58_1028" x="0.599976" y="0" width="114" height="40" filterUnits="userSpaceOnUse" color-interpolation-filters="sRGB">
<feFlood flood-opacity="0" result="BackgroundImageFix"/>
<feBlend mode="normal" in="SourceGraphic" in2="BackgroundImageFix" result="shape"/>
<feColorMatrix in="SourceAlpha" type="matrix" values="0 0 0 0 0 0 0 0 0 0 0 0 0 0 0 0 0 0 127 0" result="hardAlpha"/>
<feOffset dy="50"/>
<feComposite in2="hardAlpha" operator="arithmetic" k2="-1" k3="1"/>
<feColorMatrix type="matrix" values="0 0 0 0 0.145098 0 0 0 0 0.25098 0 0 0 0 0.556863 0 0 0 1 0"/>
<feBlend mode="normal" in2="shape" result="effect1_innerShadow_58_1028"/>
</filter>
<clipPath id="clip0_58_1028">
<rect width="114" height="40" fill="white" transform="translate(0.599976)"/>
</clipPath>
</defs>
</svg>
